Run_50001
nRows=4
nColumns=164

# SIMM Motion File Header:
name Run_50001
datacolumns 164
datarows 4
otherdata 1
range 2.36666700 2.39166700
endheader
time	pelvis_tilt	pelvis_list	pelvis_rotation	pelvis_tx	pelvis_ty	pelvis_tz	hip_flexion_r	hip_adduction_r	hip_rotation_r	knee_angle_r	ankle_angle_r	hip_flexion_l	hip_adduction_l	hip_rotation_l	knee_angle_l	ankle_angle_l	lumbar_extension	lumbar_bending	lumbar_rotation	arm_flex_r	arm_add_r	arm_rot_r	elbow_flex_r	pro_sup_r	arm_flex_l	arm_add_l	arm_rot_l	elbow_flex_l	pro_sup_l	subtalar_angle_r	mtp_angle_r	subtalar_angle_l	mtp_angle_l	wrist_flex_r	wrist_dev_r	wrist_flex_l	wrist_dev_l	RASI_tx	RASI_ty	RASI_tz	LPSI_tx	LPSI_ty	LPSI_tz	RPSI_tx	RPSI_ty	RPSI_tz	RTH3_tx	RTH3_ty	RTH3_tz	LTH1_tx	LTH1_ty	LTH1_tz	LTH2_tx	LTH2_ty	LTH2_tz	LTH3_tx	LTH3_ty	LTH3_tz	RTB1_tx	RTB1_ty	RTB1_tz	RTB2_tx	RTB2_ty	RTB2_tz	RTB3_tx	RTB3_ty	RTB3_tz	LTB1_tx	LTB1_ty	LTB1_tz	LTB2_tx	LTB2_ty	LTB2_tz	LTB3_tx	LTB3_ty	LTB3_tz	RCAL_tx	RCAL_ty	RCAL_tz	RTOE_tx	RTOE_ty	RTOE_tz	RMT5_tx	RMT5_ty	RMT5_tz	LCAL_tx	LCAL_ty	LCAL_tz	LTOE_tx	LTOE_ty	LTOE_tz	LMT5_tx	LMT5_ty	LMT5_tz	LACR_tx	LACR_ty	LACR_tz	RACR_tx	RACR_ty	RACR_tz	CLAV_tx	CLAV_ty	CLAV_tz	C7_tx	C7_ty	C7_tz	RUA1_tx	RUA1_ty	RUA1_tz	RUA2_tx	RUA2_ty	RUA2_tz	RUA3_tx	RUA3_ty	RUA3_tz	RLEL_tx	RLEL_ty	RLEL_tz	LUA1_tx	LUA1_ty	LUA1_tz	LUA2_tx	LUA2_ty	LUA2_tz	LUA3_tx	LUA3_ty	LUA3_tz	LLEL_tx	LLEL_ty	LLEL_tz	LMEL_tx	LMEL_ty	LMEL_tz	RFAsuperior_tx	RFAsuperior_ty	RFAsuperior_tz	RFAradius_tx	RFAradius_ty	RFAradius_tz	RFAulna_tx	RFAulna_ty	RFAulna_tz	LFAsuperior_tx	LFAsuperior_ty	LFAsuperior_tz	LFAradius_tx	LFAradius_ty	LFAradius_tz	LFAulna_tx	LFAulna_ty	LFAulna_tz	LASI_tx	LASI_ty	LASI_tz	RTH1_tx	RTH1_ty	RTH1_tz	RMEL_tx	RMEL_ty	RMEL_tz	RTH2_tx	RTH2_ty	RTH2_tz
      2.36666700	     -5.85976074	     -2.94684933	     -8.17237474	      0.94698248	      0.93253630	     -0.33232672	     15.42794564	     13.39439330	      6.06693501	    -40.23125235	     24.07669803	     42.28441807	     -6.72077578	     -4.24951427	   -125.90886380	      2.35848533	     -8.23465916	      6.48855037	      5.95586896	    -22.38666793	    -28.88654304	      3.35783720	     91.76492350	    111.01162406	    -34.35041619	    -17.31661074	      4.10942911	     90.79403271	    118.58227433	      0.00000000	      0.00000000	      0.00000000	      0.00000000	      0.00000000	      0.00000000	      0.00000000	      0.00000000	      0.93558345	      0.95390217	     -0.24453229	      0.81084285	      1.00190636	     -0.39673132	      0.79240544	      1.00675431	     -0.30023945	      0.90618552	      0.54111559	     -0.23476452	      0.97137509	      0.78675766	     -0.50888689	      1.07977576	      0.72117512	     -0.49667456	      1.06756416	      0.59865836	     -0.49443343	      0.91713229	      0.31834541	     -0.32825751	      0.85873369	      0.26949265	     -0.27118487	      0.84356403	      0.21856255	     -0.34490231	      1.01387675	      0.46248697	     -0.41648544	      0.94211053	      0.50019908	     -0.49301135	      0.84663637	      0.47506710	     -0.42390720	      0.66951434	      0.10890601	     -0.36183147	      0.87328269	      0.06940312	     -0.38719541	      0.85123273	      0.05996327	     -0.29229455	      0.69959779	      0.57748838	     -0.42689478	      0.69709838	      0.37073271	     -0.40996461	      0.68898209	      0.38573338	     -0.50056947	      0.96643120	      1.42316023	     -0.50858788	      0.94279218	      1.40546924	     -0.11332977	      1.00925116	      1.40830965	     -0.28753493	      0.89040708	      1.47478597	     -0.32723065	      0.88077490	      1.27788130	     -0.06424170	      0.80647327	      1.27832420	     -0.08013125	      0.83585723	      1.20519344	     -0.03484637	      0.80144486	      1.14586403	     -0.01119698	      0.88067688	      1.32219864	     -0.57571022	      0.80229791	      1.30336456	     -0.56854513	      0.84752756	      1.23990729	     -0.59591903	      0.77870119	      1.19282886	     -0.62772411	      0.73545455	      1.19956611	     -0.55432183	      0.90357597	      1.07617739	     -0.04673456	      0.97321851	      1.01843255	     -0.12604803	      0.96078513	      0.97145667	     -0.07340057	      0.85374615	      1.08710480	     -0.59753199	      0.91831242	      1.03077051	     -0.50309219	      0.90178929	      0.99373920	     -0.56022078	      0.97520276	      0.95633098	     -0.44368353	      0.87561976	      0.79500367	     -0.16249900	      0.76360300	      1.12588707	     -0.08164853	      0.00020613	      0.00014804	     -0.00004414
      2.37500000	     -5.76943881	     -2.40690646	     -7.57037776	      0.94740134	      0.93648521	     -0.33264301	     11.43559109	     12.48157331	      7.47660114	    -37.26644739	     24.24609594	     45.39118666	     -5.42990168	     -3.28100326	   -123.09777536	      3.10925571	     -8.03111960	      5.69056394	      6.60342443	    -20.87089793	    -28.38946901	      3.12733792	     93.90694662	    110.07085650	    -36.09678989	    -18.01931651	      4.21632298	     91.20773902	    118.67754410	      0.00000000	      0.00000000	      0.00000000	      0.00000000	      0.00000000	      0.00000000	      0.00000000	      0.00000000	      0.93596355	      0.95711986	     -0.24462560	      0.81061735	      1.00592057	     -0.39533294	      0.79239629	      1.01075711	     -0.29834085	      0.88691395	      0.54188625	     -0.23494662	      0.97375177	      0.79455764	     -0.50764771	      1.08681821	      0.73652537	     -0.49436959	      1.08317076	      0.61353593	     -0.49107337	      0.88698996	      0.31861165	     -0.32975534	      0.82867001	      0.27083608	     -0.27101596	      0.81206025	      0.21973956	     -0.34528743	      1.03921847	      0.46959371	     -0.41263267	      0.96421849	      0.50013621	     -0.49050712	      0.87105394	      0.46551844	     -0.42294407	      0.63483301	      0.11064282	     -0.36096245	      0.83843364	      0.06986122	     -0.38660100	      0.81626644	      0.05997894	     -0.29187876	      0.71306855	      0.55199108	     -0.43052192	      0.73472327	      0.34649631	     -0.41024790	      0.72603650	      0.35914027	     -0.50086824	      0.96180056	      1.42752420	     -0.50935817	      0.94647631	      1.41046935	     -0.11412047	      1.00898549	      1.41220255	     -0.28956324	      0.88947978	      1.47861195	     -0.32660016	      0.88823079	      1.28117636	     -0.06456130	      0.81340913	      1.27874126	     -0.07875740	      0.84607733	      1.20710798	     -0.03478800	      0.81447028	      1.14634450	     -0.01122859	      0.87327540	      1.32953266	     -0.57583010	      0.79469376	      1.31263652	     -0.56814716	      0.83793124	      1.24801292	     -0.59618382	      0.76714765	      1.20301573	     -0.62718598	      0.72547834	      1.21056024	     -0.55310480	      0.91986909	      1.08322409	     -0.04975354	      0.99167383	      1.03168701	     -0.13106550	      0.98249243	      0.98258276	     -0.07991418	      0.83964145	      1.09547983	     -0.59863266	      0.90503930	      1.03754415	     -0.50554015	      0.88686686	      1.00146709	     -0.56280483	      0.97468560	      0.96047726	     -0.44330302	      0.87595461	      0.79565237	     -0.16417246	      0.77648703	      1.12556303	     -0.08133762	      0.00026342	      0.00018919	     -0.00005641
      2.38333300	     -5.79018533	     -1.68606575	     -6.85520341	      0.94902605	      0.94101659	     -0.33240275	      7.26007501	     11.29878992	      8.60528653	    -33.66757223	     23.55771235	     48.04415283	     -3.98385806	     -2.50191005	   -119.59199964	      3.93961265	     -7.49579205	      4.63751046	      7.06130669	    -19.77840640	    -27.67158647	      2.82392518	     96.11195199	    109.34147544	    -38.17650575	    -18.91614317	      4.13596519	     92.23912146	    118.97023564	      0.00000000	      0.00000000	      0.00000000	      0.00000000	      0.00000000	      0.00000000	      0.00000000	      0.00000000	      0.93963682	      0.96083805	     -0.24127362	      0.81112082	      1.01085855	     -0.39362088	      0.79407786	      1.01502646	     -0.29656351	      0.86686845	      0.54443835	     -0.23552565	      0.97627789	      0.80320329	     -0.50641487	      1.09235693	      0.75133194	     -0.49229733	      1.09660650	      0.62866487	     -0.48722265	      0.85678851	      0.32052702	     -0.33013410	      0.79747394	      0.27440434	     -0.27063112	      0.78057440	      0.22268858	     -0.34549284	      1.06306001	      0.47666578	     -0.40878511	      0.98509964	      0.50005492	     -0.48770915	      0.89495924	      0.45557264	     -0.42191609	      0.60029245	      0.11412779	     -0.35951062	      0.80344049	      0.07044038	     -0.38590984	      0.78099554	      0.06003679	     -0.29138343	      0.72860318	      0.52420809	     -0.43281396	      0.77477659	      0.32283509	     -0.41024795	      0.76520693	      0.33345042	     -0.50061516	      0.95709274	      1.43299288	     -0.51004136	      0.95017066	      1.41670665	     -0.11524147	      1.00866667	      1.41710027	     -0.29168563	      0.88850711	      1.48326090	     -0.32612135	      0.89545247	      1.28581785	     -0.06529613	      0.82029664	      1.28150058	     -0.07769408	      0.85558210	      1.21083688	     -0.03512806	      0.82640352	      1.14879697	     -0.01179240	      0.86615878	      1.33830580	     -0.57593710	      0.78744649	      1.32319287	     -0.56805012	      0.82862321	      1.25739543	     -0.59635123	      0.75602280	      1.21442942	     -0.62626925	      0.71561390	      1.22303339	     -0.55150040	      0.93454138	      1.09231656	     -0.05335209	      1.00804196	      1.04706339	     -0.13641205	      1.00209768	      0.99620331	     -0.08676645	      0.82703192	      1.10635917	     -0.59913781	      0.89292344	      1.04680678	     -0.50708815	      0.87360368	      1.01155397	     -0.56443102	      0.97475858	      0.96581631	     -0.44275885	      0.87507672	      0.79774815	     -0.16531491	      0.78849023	      1.12730681	     -0.08173802	      0.00009434	      0.00006775	     -0.00002020
      2.39166700	     -5.87430140	     -0.72401931	     -6.02248343	      0.95148057	      0.94596861	     -0.33192290	      3.03480604	      9.77244370	      9.15901856	    -29.77114511	     21.75062871	     50.25878380	     -2.32908523	     -1.97268500	   -115.48472392	      4.79539688	     -6.76814778	      3.26543653	      7.29956419	    -19.01472199	    -26.82672844	      2.57136067	     98.39009295	    108.94181267	    -40.52546311	    -19.92181263	      3.83094747	     93.76854673	    119.33272530	      0.00000000	      0.00000000	      0.00000000	      0.00000000	      0.00000000	      0.00000000	      0.00000000	      0.00000000	      0.94552430	      0.96460744	     -0.23609445	      0.81211278	      1.01638827	     -0.39147860	      0.79717987	      1.01921102	     -0.29462763	      0.84636507	      0.54896287	     -0.23643179	      0.97897983	      0.81230640	     -0.50522350	      1.09697484	      0.76541623	     -0.49022979	      1.10806173	      0.64362388	     -0.48320866	      0.82669460	      0.32404349	     -0.32945859	      0.76570171	      0.27998276	     -0.27032175	      0.74875464	      0.22755934	     -0.34501054	      1.08534212	      0.48365454	     -0.40541932	      1.00503849	      0.49964912	     -0.48485603	      0.91886760	      0.44520987	     -0.42099790	      0.56606706	      0.12084603	     -0.35749097	      0.76784555	      0.07091317	     -0.38520273	      0.74490700	      0.06021820	     -0.29092086	      0.74672815	      0.49465656	     -0.43363866	      0.81722767	      0.30039051	     -0.40992762	      0.80637560	      0.30919973	     -0.49992819	      0.95243869	      1.43931331	     -0.51059572	      0.95380030	      1.42393273	     -0.11672500	      1.00828691	      1.42282178	     -0.29394695	      0.88743543	      1.48844041	     -0.32585552	      0.90238612	      1.29160190	     -0.06630092	      0.82702320	      1.28625989	     -0.07690375	      0.86445763	      1.21607578	     -0.03577798	      0.83725304	      1.15292701	     -0.01264850	      0.85941844	      1.34824117	     -0.57596622	      0.78068609	      1.33473924	     -0.56780856	      0.81977978	      1.26785064	     -0.59632901	      0.74555271	      1.22684005	     -0.62503157	      0.70626767	      1.23658008	     -0.54950788	      0.94752086	      1.10310668	     -0.05734927	      1.02207339	      1.06385367	     -0.14214487	      1.01942007	      1.01163223	     -0.09384908	      0.81593686	      1.11905790	     -0.59911316	      0.88196750	      1.05782579	     -0.50787139	      0.86182560	      1.02315474	     -0.56506890	      0.97523940	      0.97244278	     -0.44239360	      0.87237370	      0.80180076	     -0.16556175	      0.79939527	      1.13090153	     -0.08251546	     -0.00006142	     -0.00004412	      0.00001315
